<svg width="18" height="16" viewBox="0 0 18 16" fill="currentColor" xmlns="http://www.w3.org/2000/svg">
    <style>path { fill: #000}</style>
    <path d="M15.3404 0.38916H13.8071V1.93323C13.8071 2.24205 13.5516 2.44792 13.296 2.44792C13.0405 2.44792 12.785 2.24205 12.785 1.93323V0.38916H4.60762V1.93323C4.60762 2.24205 4.35208 2.44792 4.09654 2.44792C3.841 2.44792 3.58546 2.24205 3.58546 1.93323V0.38916H2.05221C1.28558 0.38916 0.723389 1.05826 0.723389 1.93323V3.78612H17.0781V1.93323C17.0781 1.05826 16.1581 0.38916 15.3404 0.38916ZM0.723389 4.86697V14.2858C0.723389 15.2123 1.28558 15.8299 2.10331 15.8299H15.3915C16.2092 15.8299 17.1292 15.1608 17.1292 14.2858V4.86697H0.723389ZM5.27203 13.5138H4.04543C3.841 13.5138 3.63656 13.3594 3.63656 13.102V11.8153C3.63656 11.6094 3.78989 11.4035 4.04543 11.4035H5.32314C5.52757 11.4035 5.73201 11.558 5.73201 11.8153V13.102C5.6809 13.3594 5.52757 13.5138 5.27203 13.5138ZM5.27203 8.88156H4.04543C3.841 8.88156 3.63656 8.72715 3.63656 8.46981V7.18308C3.63656 6.9772 3.78989 6.77133 4.04543 6.77133H5.32314C5.52757 6.77133 5.73201 6.92574 5.73201 7.18308V8.46981C5.6809 8.72715 5.52757 8.88156 5.27203 8.88156ZM9.3607 13.5138H8.08299C7.87856 13.5138 7.67412 13.3594 7.67412 13.102V11.8153C7.67412 11.6094 7.82745 11.4035 8.08299 11.4035H9.3607C9.56513 11.4035 9.76956 11.558 9.76956 11.8153V13.102C9.76956 13.3594 9.61624 13.5138 9.3607 13.5138ZM9.3607 8.88156H8.08299C7.87856 8.88156 7.67412 8.72715 7.67412 8.46981V7.18308C7.67412 6.9772 7.82745 6.77133 8.08299 6.77133H9.3607C9.56513 6.77133 9.76956 6.92574 9.76956 7.18308V8.46981C9.76956 8.72715 9.61624 8.88156 9.3607 8.88156ZM13.4494 13.5138H12.1717C11.9672 13.5138 11.7628 13.3594 11.7628 13.102V11.8153C11.7628 11.6094 11.9161 11.4035 12.1717 11.4035H13.4494C13.6538 11.4035 13.8582 11.558 13.8582 11.8153V13.102C13.8582 13.3594 13.7049 13.5138 13.4494 13.5138ZM13.4494 8.88156H12.1717C11.9672 8.88156 11.7628 8.72715 11.7628 8.46981V7.18308C11.7628 6.9772 11.9161 6.77133 12.1717 6.77133H13.4494C13.6538 6.77133 13.8582 6.92574 13.8582 7.18308V8.46981C13.8582 8.72715 13.7049 8.88156 13.4494 8.88156Z" />
</svg>
